<svg xmlns="http://www.w3.org/2000/svg"  viewBox="0 0 64 64" width="128px" height="128px"><path fill="#72caaf" d="M55,57H5c-1.1,0-2-0.903-2-2.006V27.006C3,25.903,3.9,25,5,25h50c1.1,0,2,0.903,2,2.006v27.987 C57,56.097,56.1,57,55,57z"/><path fill="#fadb6f" d="M48 39A3 3 0 1 0 48 45A3 3 0 1 0 48 39Z"/><path fill="#bbdef9" d="M30 31A8 10 0 1 0 30 51A8 10 0 1 0 30 31Z"/><path fill="#def0ff" d="M30 51c4.4 0 8-4.5 8-10 0-2-.5-3.8-1.3-5.4l-11 13.8C27 50.4 28.4 51 30 51zM24.1 47.8l11.2-14.2c-.5-.6-1.1-1.1-1.8-1.5L22.9 45.6C23.2 46.4 23.6 47.1 24.1 47.8zM22.3 43.8l9.8-12.4c-.3-.1-.5-.2-.8-.2l-9.2 11.6C22.2 43.1 22.2 43.4 22.3 43.8z"/><path fill="#97e0bb" d="M54.055,30H5.945C4.276,30,3,28.7,3,27l0,0c0-1.1,0.884-2,1.964-2h50.073C56.116,25,57,25.9,57,27 l0,0C57,28.7,55.724,30,54.055,30z"/><path fill="#fadb6f" d="M12 39A3 3 0 1 0 12 45A3 3 0 1 0 12 39Z"/><path fill="#efc88e" d="M53 17A9 9 0 1 0 53 35A9 9 0 1 0 53 17Z"/><path fill="#f9e3ae" d="M44 6A12 12 0 1 0 44 30A12 12 0 1 0 44 6Z"/><path fill="#8d6c9f" d="M17 28c-.6 0-1 .4-1 1v2c0 .6.4 1 1 1s1-.4 1-1v-2C18 28.4 17.6 28 17 28zM22 32c.6 0 1-.4 1-1v-2c0-.6-.4-1-1-1s-1 .4-1 1v2C21 31.6 21.4 32 22 32zM17 50c-.6 0-1 .4-1 1v2c0 .6.4 1 1 1s1-.4 1-1v-2C18 50.4 17.6 50 17 50zM22 50c-.6 0-1 .4-1 1v2c0 .6.4 1 1 1s1-.4 1-1v-2C23 50.4 22.6 50 22 50zM38 50c-.6 0-1 .4-1 1v2c0 .6.4 1 1 1s1-.4 1-1v-2C39 50.4 38.6 50 38 50zM43 50c-.6 0-1 .4-1 1v2c0 .6.4 1 1 1s1-.4 1-1v-2C44 50.4 43.6 50 43 50zM53 52h-5c-.6 0-1 .4-1 1s.4 1 1 1h5c.6 0 1-.4 1-1S53.6 52 53 52zM34 31.1V29c0-.6-.4-1-1-1s-1 .4-1 1v1.3c-.6-.2-1.3-.3-2-.3s-1.4.1-2 .3V29c0-.6-.4-1-1-1s-1 .4-1 1v2c0 .1 0 .1 0 .1-3 1.8-5 5.5-5 9.9 0 4.4 2.1 8.1 5 9.9V53c0 .6.4 1 1 1s1-.4 1-1v-1.3c.6.2 1.3.3 2 .3s1.4-.1 2-.3V53c0 .6.4 1 1 1s1-.4 1-1v-2c0-.1 0-.1 0-.1 3-1.8 5-5.5 5-9.9C39 36.6 36.9 32.9 34 31.1zM30 50.2c-1.4 0-2.7-.52-3.8-1.43-.57-.47-1.09-1.04-1.52-1.7-.47-.68-.86-1.44-1.14-2.28-.22-.61-.39-1.26-.49-1.93-.01 0 0-.01 0-.01-.06-.36-.1-.73-.12-1.1-.02-.25-.03-.5-.03-.75 0-5.1 3.2-9.2 7.1-9.2.26 0 .52.02.78.06.28.03.55.09.81.18.51.14.99.36 1.45.64.64.4 1.24.93 1.76 1.55.52.61.96 1.32 1.31 2.11C36.74 37.7 37.1 39.3 37.1 41 37.1 46.1 33.9 50.2 30 50.2zM48 38c-2.2 0-4 1.8-4 4s1.8 4 4 4 4-1.8 4-4S50.2 38 48 38zM48 44.2c-1.2 0-2.2-1-2.2-2.2s1-2.2 2.2-2.2 2.2 1 2.2 2.2S49.2 44.2 48 44.2zM7 31h5c.6 0 1-.4 1-1s-.4-1-1-1H7c-.6 0-1 .4-1 1S6.4 31 7 31zM12 51H7c-.6 0-1 .4-1 1s.4 1 1 1h5c.6 0 1-.4 1-1S12.6 51 12 51zM12 38c-2.2 0-4 1.8-4 4s1.8 4 4 4 4-1.8 4-4S14.2 38 12 38zM12 44.2c-1.2 0-2.2-1-2.2-2.2s1-2.2 2.2-2.2 2.2 1 2.2 2.2S13.2 44.2 12 44.2z"/><path fill="#8d6c9f" d="M63,26c0-4.014-2.41-7.624-6.06-9.189C56.337,10.199,50.767,5,44,5c-7.168,0-13,5.832-13,13 c0,2.165,0.539,4.203,1.479,6H5c-1.63,0-2.89,1.2-2.99,2.8C2,26.86,2,26.93,2,27v28c0,1.66,1.34,3,3,3h50c1.66,0,3-1.34,3-3V34.647 C60.984,32.915,63,29.691,63,26z M44,7c6.065,0,11,4.935,11,11s-4.935,11-11,11s-11-4.935-11-11S37.935,7,44,7z M56,55 c0,0.55-0.45,1-1,1H5c-0.55,0-1-0.45-1-1V27c0-0.55,0.45-1,1-1h28.774c2.382,3.038,6.075,5,10.226,5c0.12,0,0.236-0.015,0.355-0.018 C46.14,34.084,49.382,36,53,36c1.045,0,2.052-0.163,3-0.461V55z M53,34c-2.588,0-4.937-1.226-6.428-3.258 c5.605-1.129,9.906-5.876,10.375-11.69C59.413,20.456,61,23.092,61,26C61,30.411,57.411,34,53,34z"/><path fill="#8d6c9f" d="M43,10v1c-2.209,0-4,1.791-4,4s1.791,4,4,4h2c1.105,0,2,0.895,2,2s-0.895,2-2,2v-2 c0-0.552-0.448-1-1-1s-1,0.448-1,1v2c-1.105,0-2-0.895-2-2c0-0.552-0.448-1-1-1s-1,0.448-1,1c0,2.209,1.791,4,4,4v1 c0,0.552,0.448,1,1,1s1-0.448,1-1v-1c2.209,0,4-1.791,4-4s-1.791-4-4-4v-2c0-0.552-0.448-1-1-1s-1,0.448-1,1v2c-1.105,0-2-0.895-2-2 s0.895-2,2-2h2c1.105,0,2,0.895,2,2c0,0.552,0.448,1,1,1s1-0.448,1-1c0-2.209-1.791-4-4-4v-1c0-0.552-0.448-1-1-1S43,9.448,43,10z"/></svg>